<svg width="140" height="132" viewBox="0 0 140 132" fill="none" xmlns="http://www.w3.org/2000/svg">
<path d="M80.0249 75.5263H95.9738C96.5408 75.5263 96.9998 75.9864 96.9998 76.5546V76.7522C96.9998 77.3205 96.5408 77.7805 95.9738 77.7805H80.0249C79.7528 77.7805 79.4919 77.6722 79.2994 77.4793C79.107 77.2865 78.9989 77.0249 78.9989 76.7522V76.5546C78.9989 75.9864 79.4579 75.5263 80.0249 75.5263ZM80.1248 67.6326H104.876C105.174 67.6326 105.461 67.7515 105.672 67.9631C105.883 68.1747 106.002 68.4618 106.002 68.761C106.002 69.0603 105.883 69.3473 105.672 69.559C105.461 69.7706 105.174 69.8895 104.876 69.8895H80.1248C79.8262 69.8895 79.5399 69.7706 79.3287 69.559C79.1176 69.3473 78.9989 69.0603 78.9989 68.761C78.9989 68.4618 79.1176 68.1747 79.3287 67.9631C79.5399 67.7515 79.8262 67.6326 80.1248 67.6326V67.6326ZM80.1248 60.8673H104.876C105.174 60.8673 105.461 60.9862 105.672 61.1978C105.883 61.4094 106.002 61.6965 106.002 61.9958C106.002 62.295 105.883 62.5821 105.672 62.7937C105.461 63.0053 105.174 63.1242 104.876 63.1242H80.1248C79.8262 63.1242 79.5399 63.0053 79.3287 62.7937C79.1176 62.5821 78.9989 62.295 78.9989 61.9958C78.9989 61.6965 79.1176 61.4094 79.3287 61.1978C79.5399 60.9862 79.8262 60.8673 80.1248 60.8673V60.8673ZM80.0249 51.8478H95.9738C96.5408 51.8478 96.9998 52.3079 96.9998 52.8761V53.0737C96.9998 53.642 96.5408 54.102 95.9738 54.102H80.0249C79.7528 54.102 79.4919 53.9937 79.2994 53.8008C79.107 53.608 78.9989 53.3464 78.9989 53.0737V52.8761C78.9989 52.3079 79.4579 51.8478 80.0249 51.8478ZM80.1248 43.9541H104.876C105.174 43.9541 105.461 44.073 105.672 44.2846C105.883 44.4962 106.002 44.7833 106.002 45.0825C106.002 45.3818 105.883 45.6689 105.672 45.8805C105.461 46.0921 105.174 46.211 104.876 46.211H80.1248C79.8262 46.211 79.5399 46.0921 79.3287 45.8805C79.1176 45.6689 78.9989 45.3818 78.9989 45.0825C78.9989 44.7833 79.1176 44.4962 79.3287 44.2846C79.5399 44.073 79.8262 43.9541 80.1248 43.9541V43.9541ZM80.1248 36.0631H104.876C105.164 36.0773 105.437 36.2022 105.636 36.412C105.835 36.6218 105.946 36.9004 105.946 37.1902C105.946 37.4799 105.835 37.7585 105.636 37.9683C105.437 38.1781 105.164 38.3031 104.876 38.3173H80.1248C79.8361 38.3031 79.5639 38.1781 79.3646 37.9683C79.1652 37.7585 79.0541 37.4799 79.0541 37.1902C79.0541 36.9004 79.1652 36.6218 79.3646 36.412C79.5639 36.2022 79.8361 36.0773 80.1248 36.0631V36.0631ZM70.4265 59.7416C70.6695 59.7415 70.91 59.7901 71.134 59.8846C71.358 59.9791 71.5609 60.1176 71.7307 60.2918C71.9005 60.466 72.0338 60.6725 72.1228 60.8992C72.2118 61.1258 72.2547 61.368 72.249 61.6115V78.2324C72.249 79.2445 71.439 80.0699 70.4265 80.0807H53.8215C53.3362 80.075 52.8726 79.8778 52.5315 79.5318C52.1903 79.1858 51.999 78.7189 51.999 78.2324V61.6115C51.9932 61.368 52.0361 61.1258 52.1251 60.8992C52.2141 60.6725 52.3475 60.466 52.5173 60.2918C52.6871 60.1176 52.89 59.9791 53.1139 59.8846C53.3379 59.7901 53.5785 59.7415 53.8215 59.7416H70.4265ZM69.9999 77.7805V61.9958H54.2508V77.7805H69.9999ZM70.4265 34.9346C70.6697 34.9345 70.9105 34.9833 71.1347 35.0779C71.3588 35.1726 71.5618 35.3113 71.7317 35.4858C71.9015 35.6603 72.0348 35.8671 72.1236 36.0941C72.2125 36.321 72.2551 36.5635 72.249 36.8072V53.4255C72.249 54.4376 71.439 55.2656 70.4265 55.2765H53.8215C53.3357 55.2708 52.8718 55.0732 52.5305 54.7266C52.1893 54.38 51.9983 53.9124 51.999 53.4255V36.8072C51.9929 36.5635 52.0355 36.321 52.1243 36.0941C52.2132 35.8671 52.3465 35.6603 52.5163 35.4858C52.6861 35.3113 52.8891 35.1726 53.1133 35.0779C53.3375 34.9833 53.5783 34.9345 53.8215 34.9346H70.4265ZM69.9999 52.9763V37.1888H54.2508V52.9763H69.9999ZM116.351 12.0003C117.358 11.9916 118.356 12.184 119.288 12.5662C120.22 12.9484 121.067 13.5128 121.779 14.2264C122.491 14.9401 123.054 15.7887 123.435 16.7227C123.816 17.6567 124.008 18.6575 124 19.6667V94.5368C124.008 95.5459 123.816 96.5468 123.435 97.4808C123.054 98.4148 122.491 99.2634 121.779 99.977C121.067 100.691 120.22 101.255 119.288 101.637C118.356 102.019 117.358 102.212 116.351 102.203H105.999V110.322H103.75V102.203H41.6499C40.6429 102.212 39.6442 102.02 38.7121 101.638C37.78 101.256 36.9332 100.692 36.2211 99.9779C35.5091 99.2642 34.946 98.4154 34.5648 97.4812C34.1835 96.547 33.9918 95.546 34.0009 94.5368V32.2962H25.6741V30.042H34.0009V19.6667C33.9918 18.6574 34.1835 17.6565 34.5648 16.7223C34.946 15.7881 35.5091 14.9393 36.2211 14.2256C36.9332 13.5119 37.78 12.9476 38.7121 12.5655C39.6442 12.1834 40.6429 11.9913 41.6499 12.0003H116.351ZM121.751 94.5368V19.6667C121.733 18.2368 121.159 16.8703 120.15 15.8591C119.141 14.8479 117.777 14.272 116.351 14.2545H41.6499C40.2232 14.272 38.8599 14.8479 37.8509 15.8591C36.842 16.8703 36.2675 18.2368 36.2499 19.6667V94.5368C36.2675 95.9667 36.842 97.3332 37.8509 98.3444C38.8599 99.3556 40.2232 99.9314 41.6499 99.949H116.351C117.777 99.9314 119.141 99.3556 120.15 98.3444C121.159 97.3332 121.733 95.9667 121.751 94.5368V94.5368ZM16 87.095H18.2491V95.8898H16V87.095ZM16 51.9155H18.2491V60.7103H16V51.9155ZM16 113.704V104.685H18.2491V113.48L16 113.704ZM16 69.5052H18.2491V78.3001H16V69.5052ZM22.9741 120.245L23.2009 117.991H31.7491V120.245H22.9741ZM98.3498 117.991C99.365 118.007 100.369 117.774 101.274 117.314L102.4 119.116C101.179 119.859 99.7776 120.249 98.3498 120.245H93.4007V117.991H98.3498ZM75.8507 117.991H84.6257V120.245H75.8507V117.991ZM58.074 117.991H66.849V120.245H58.074V117.991ZM40.524 117.991H49.299V120.245H40.524V117.991ZM16 37.7084C16.027 36.3553 16.4158 35.0293 17.1259 33.8738L18.9241 35.0023C18.4651 35.8276 18.2329 36.7612 18.2491 37.7084V43.1206H16V37.7084Z" fill="black"/>
</svg>
