<svg width="48" height="31" viewBox="0 0 48 31" fill="none" xmlns="http://www.w3.org/2000/svg">
<path d="M28.661 0.0616319C28.5267 0.0141421 28.3844 -0.00624296 28.2422 0.00165867C28.1001 0.0095603 27.9609 0.0455915 27.8327 0.107664C27.7046 0.169737 27.59 0.256618 27.4957 0.363276C27.4013 0.469934 27.3291 0.59425 27.2831 0.729022L17.5952 28.7164C17.5026 28.9861 17.5209 29.2817 17.646 29.538C17.7712 29.7943 17.9929 29.9905 18.2626 30.0834C18.3805 30.099 18.4999 30.099 18.6178 30.0834C18.8422 30.0848 19.0613 30.016 19.2447 29.8867C19.428 29.7574 19.5664 29.574 19.6404 29.3622L29.3284 1.37488C29.4049 1.11216 29.3785 0.83016 29.2545 0.586216C29.1305 0.342272 28.9183 0.154699 28.661 0.0616319V0.0616319ZM13.9999 1.79469C13.8998 1.6938 13.7808 1.61372 13.6496 1.55907C13.5184 1.50442 13.3777 1.47629 13.2356 1.47629C13.0935 1.47629 12.9528 1.50442 12.8217 1.55907C12.6905 1.61372 12.5714 1.6938 12.4714 1.79469L0.318408 13.9477C0.217515 14.0477 0.137435 14.1668 0.0827854 14.298C0.0281361 14.4291 0 14.5698 0 14.7119C0 14.854 0.0281361 14.9947 0.0827854 15.1259C0.137435 15.2571 0.217515 15.3761 0.318408 15.4762L12.4714 27.6292C12.5714 27.73 12.6905 27.8101 12.8217 27.8648C12.9528 27.9194 13.0935 27.9476 13.2356 27.9476C13.3777 27.9476 13.5184 27.9194 13.6496 27.8648C13.7808 27.8101 13.8998 27.73 13.9999 27.6292C14.2004 27.4275 14.3129 27.1546 14.3129 26.8703C14.3129 26.5859 14.2004 26.3131 13.9999 26.1114L2.57892 14.7119L13.9999 3.29094C14.1939 3.09022 14.3024 2.82198 14.3024 2.54282C14.3024 2.26366 14.1939 1.99541 13.9999 1.79469V1.79469ZM47.6816 13.9477L35.5286 1.79469C35.4286 1.6938 35.3095 1.61372 35.1783 1.55907C35.0472 1.50442 34.9065 1.47629 34.7644 1.47629C34.6223 1.47629 34.4816 1.50442 34.3504 1.55907C34.2192 1.61372 34.1002 1.6938 34.0001 1.79469C33.7996 1.99638 33.6871 2.2692 33.6871 2.55358C33.6871 2.83796 33.7996 3.11078 34.0001 3.31247L45.4211 14.7119L34.0001 26.1329C33.7996 26.3346 33.6871 26.6074 33.6871 26.8918C33.6871 27.1762 33.7996 27.449 34.0001 27.6507C34.1002 27.7516 34.2192 27.8317 34.3504 27.8863C34.4816 27.941 34.6223 27.9691 34.7644 27.9691C34.9065 27.9691 35.0472 27.941 35.1783 27.8863C35.3095 27.8317 35.4286 27.7516 35.5286 27.6507L47.6816 15.4762C47.7825 15.3761 47.8626 15.2571 47.9172 15.1259C47.9719 14.9947 48 14.854 48 14.7119C48 14.5698 47.9719 14.4291 47.9172 14.298C47.8626 14.1668 47.7825 14.0477 47.6816 13.9477V13.9477Z" fill="black"/>
</svg>
