<svg width="48" height="26" viewBox="0 0 48 26" fill="none" xmlns="http://www.w3.org/2000/svg">
<path d="M15.3384 9.48592H16.7763V6.98963H14.3799C12.5825 6.98963 11.7837 7.77846 11.7837 9.2962V10.9837H9.78668V12.9807H11.7837V18.9718H14.7793V12.9807H16.5966L16.7763 10.9837H14.7793V10.1549C14.7793 9.65567 14.8791 9.48592 15.3384 9.48592V9.48592ZM40.6908 8.17787C40.2114 8.47081 39.6841 8.67699 39.1331 8.78696C38.9055 8.53621 38.6281 8.33567 38.3187 8.19813C38.0092 8.06059 37.6745 7.98907 37.3358 7.98815C36.9608 7.99555 36.5922 8.08705 36.2572 8.25588C35.9222 8.42472 35.6294 8.66659 35.4004 8.96367C35.1714 9.26074 35.0119 9.60543 34.9339 9.97233C34.8558 10.3392 34.8611 10.719 34.9493 11.0836C33.966 11.032 33.0052 10.77 32.1318 10.3153C31.2585 9.8605 30.4929 9.22355 29.8869 8.44747C29.572 9.0039 29.4753 9.65752 29.6156 10.2813C29.7558 10.905 30.123 11.4544 30.6457 11.8225C30.2562 11.8051 29.8764 11.6956 29.5374 11.5029C29.5271 12.0877 29.7209 12.6577 30.0853 13.1151C30.4498 13.5725 30.9622 13.8886 31.5344 14.0092C31.1699 14.0944 30.7906 14.0944 30.4261 14.0092C30.5763 14.5032 30.8778 14.9375 31.2881 15.251C31.6983 15.5645 32.1966 15.7413 32.7127 15.7566C32.2055 16.1803 31.6169 16.4955 30.9832 16.6827C30.3495 16.8699 29.6841 16.9251 29.0281 16.845C30.147 17.5781 31.4549 17.9701 32.7925 17.9733C33.7523 17.9671 34.7007 17.765 35.5796 17.3793C36.4585 16.9937 37.2494 16.4326 37.9038 15.7305C38.5582 15.0285 39.0623 14.2001 39.3853 13.2963C39.7083 12.3925 39.8434 11.4323 39.7822 10.4745C40.2653 10.118 40.6812 9.67848 41.0103 9.17638C40.5635 9.37678 40.0888 9.50808 39.6024 9.5658C40.1184 9.24694 40.5042 8.75499 40.6908 8.17787V8.17787Z" fill="black"/>
<path d="M35.0193 0C32.4519 0 29.9422 0.761307 27.8075 2.18765C25.6729 3.61399 24.0091 5.64131 23.0266 8.01323C22.0441 10.3851 21.7871 12.9951 22.2879 15.5132C22.7888 18.0312 24.0251 20.3441 25.8405 22.1595C27.6559 23.9749 29.9688 25.2112 32.4868 25.7121C35.0049 26.2129 37.6148 25.9559 39.9868 24.9734C42.3587 23.9909 44.386 22.3271 45.8123 20.1925C47.2387 18.0578 48 15.5481 48 12.9807C48 9.53803 46.6324 6.23633 44.198 3.80197C41.7637 1.36761 38.462 0 35.0193 0ZM35.0193 23.9644C32.8469 23.9644 30.7233 23.3203 28.917 22.1134C27.1108 20.9064 25.703 19.191 24.8716 17.184C24.0403 15.177 23.8228 12.9686 24.2466 10.8379C24.6704 8.70729 25.7165 6.75019 27.2526 5.21409C28.7887 3.67799 30.7458 2.63189 32.8764 2.20809C35.0071 1.78428 37.2155 2.00179 39.2225 2.83312C41.2295 3.66445 42.945 5.07226 44.1519 6.87852C45.3588 8.68478 46.003 10.8084 46.003 12.9807C46.003 15.8938 44.8458 18.6875 42.7859 20.7474C40.7261 22.8072 37.9323 23.9644 35.0193 23.9644V23.9644Z" fill="black"/>
<path d="M13.0519 23.9642C11.1373 23.976 9.25289 23.4871 7.58551 22.5461C5.91813 21.605 4.5257 20.2445 3.5463 18.5993C2.56689 16.9542 2.03453 15.0816 2.00201 13.1673C1.96948 11.2529 2.43792 9.36336 3.36087 7.6859C4.28383 6.00844 5.62923 4.60137 7.26368 3.60422C8.89813 2.60706 10.7648 2.05447 12.6787 2.00123C14.5926 1.948 16.4871 2.39596 18.1745 3.30071C19.8618 4.20546 21.2834 5.53556 22.2981 7.15912C22.604 6.48181 22.9647 5.8306 23.3765 5.21201C21.7441 3.02883 19.4657 1.415 16.8646 0.599374C14.2634 -0.216252 11.4715 -0.192274 8.88474 0.667907C6.29799 1.52809 4.04768 3.18081 2.45295 5.39171C0.858218 7.6026 0 10.2594 0 12.9855C0 15.7115 0.858218 18.3683 2.45295 20.5792C4.04768 22.7901 6.29799 24.4429 8.88474 25.303C11.4715 26.1632 14.2634 26.1872 16.8646 25.3716C19.4657 24.5559 21.7441 22.9421 23.3765 20.7589C22.9667 20.1391 22.6061 19.4881 22.2981 18.8118C21.3157 20.38 19.9531 21.6745 18.3366 22.5753C16.7201 23.476 14.9023 23.9538 13.0519 23.9642V23.9642Z" fill="black"/>
</svg>
