<svg width="48" height="32" viewBox="0 0 48 32" fill="none" xmlns="http://www.w3.org/2000/svg">
<path d="M45 0H3C2.20435 0 1.44129 0.31607 0.87868 0.878679C0.31607 1.44129 0 2.20435 0 3L0 21C0 21.7956 0.31607 22.5587 0.87868 23.1213C1.44129 23.6839 2.20435 24 3 24H23.2V22H3C2.73478 22 2.48043 21.8946 2.29289 21.7071C2.10536 21.5196 2 21.2652 2 21V3C2 2.73478 2.10536 2.48043 2.29289 2.29289C2.48043 2.10536 2.73478 2 3 2H45C45.2652 2 45.5196 2.10536 45.7071 2.29289C45.8946 2.48043 46 2.73478 46 3V21C46 21.2652 45.8946 21.5196 45.7071 21.7071C45.5196 21.8946 45.2652 22 45 22H30.3L32.3 24H45C45.7956 24 46.5587 23.6839 47.1213 23.1213C47.6839 22.5587 48 21.7956 48 21V3C48 2.20435 47.6839 1.44129 47.1213 0.878679C46.5587 0.31607 45.7956 0 45 0V0Z" fill="black"/>
<path d="M24.2 17.3V28.5L26.76 26.03L29.13 31.67L30.97 30.9L28.71 25.5H32.4L24.2 17.3Z" fill="black"/>
</svg>
