<svg width="48" height="38" viewBox="0 0 48 38" fill="none" xmlns="http://www.w3.org/2000/svg">
<path d="M46.74 18.16H1C0.734784 18.16 0.48043 18.2654 0.292893 18.4529C0.105357 18.6404 0 18.8948 0 19.16C0 19.4252 0.105357 19.6796 0.292893 19.8671C0.48043 20.0546 0.734784 20.16 1 20.16H46.74C47.0386 20.1885 47.3366 20.1003 47.5715 19.9139C47.8064 19.7274 47.96 19.4572 48 19.16C47.96 18.8628 47.8064 18.5926 47.5715 18.4061C47.3366 18.2197 47.0386 18.1315 46.74 18.16V18.16ZM45 2C45.2652 2 45.5196 2.10536 45.7071 2.29289C45.8946 2.48043 46 2.73478 46 3V9C46 9.26522 45.8946 9.51957 45.7071 9.70711C45.5196 9.89464 45.2652 10 45 10H3C2.73478 10 2.48043 9.89464 2.29289 9.70711C2.10536 9.51957 2 9.26522 2 9V3C2 2.73478 2.10536 2.48043 2.29289 2.29289C2.48043 2.10536 2.73478 2 3 2H45ZM45 0H3C2.20435 0 1.44129 0.316071 0.87868 0.87868C0.31607 1.44129 0 2.20435 0 3L0 9C0 9.79565 0.31607 10.5587 0.87868 11.1213C1.44129 11.6839 2.20435 12 3 12H45C45.7956 12 46.5587 11.6839 47.1213 11.1213C47.6839 10.5587 48 9.79565 48 9V3C48 2.20435 47.6839 1.44129 47.1213 0.87868C46.5587 0.316071 45.7956 0 45 0V0ZM45 28C45.2652 28 45.5196 28.1054 45.7071 28.2929C45.8946 28.4804 46 28.7348 46 29V35C46 35.2652 45.8946 35.5196 45.7071 35.7071C45.5196 35.8946 45.2652 36 45 36H3C2.73478 36 2.48043 35.8946 2.29289 35.7071C2.10536 35.5196 2 35.2652 2 35V29C2 28.7348 2.10536 28.4804 2.29289 28.2929C2.48043 28.1054 2.73478 28 3 28H45ZM45 26H3C2.20435 26 1.44129 26.3161 0.87868 26.8787C0.31607 27.4413 0 28.2043 0 29L0 35C0 35.7956 0.31607 36.5587 0.87868 37.1213C1.44129 37.6839 2.20435 38 3 38H45C45.7956 38 46.5587 37.6839 47.1213 37.1213C47.6839 36.5587 48 35.7956 48 35V29C48 28.2043 47.6839 27.4413 47.1213 26.8787C46.5587 26.3161 45.7956 26 45 26Z" fill="black"/>
</svg>
