<svg width="48" height="40" viewBox="0 0 48 40" fill="none" xmlns="http://www.w3.org/2000/svg">
<path d="M45 0H3C2.20435 0 1.44129 0.316071 0.87868 0.87868C0.31607 1.44129 0 2.20435 0 3L0 37C0 37.7956 0.31607 38.5587 0.87868 39.1213C1.44129 39.6839 2.20435 40 3 40H45C45.7956 40 46.5587 39.6839 47.1213 39.1213C47.6839 38.5587 48 37.7956 48 37V3C48 2.20435 47.6839 1.44129 47.1213 0.87868C46.5587 0.316071 45.7956 0 45 0V0ZM46 37C46 37.2652 45.8946 37.5196 45.7071 37.7071C45.5196 37.8946 45.2652 38 45 38H3C2.73478 38 2.48043 37.8946 2.29289 37.7071C2.10536 37.5196 2 37.2652 2 37V3C2 2.73478 2.10536 2.48043 2.29289 2.29289C2.48043 2.10536 2.73478 2 3 2H45C45.2652 2 45.5196 2.10536 45.7071 2.29289C45.8946 2.48043 46 2.73478 46 3V37Z" fill="black"/>
<path d="M14 10C14 9.20888 13.7654 8.43552 13.3259 7.77772C12.8864 7.11992 12.2616 6.60723 11.5307 6.30448C10.7998 6.00173 9.99556 5.92252 9.21964 6.07686C8.44372 6.2312 7.73098 6.61216 7.17157 7.17157C6.61216 7.73098 6.2312 8.44372 6.07686 9.21964C5.92252 9.99556 6.00173 10.7998 6.30448 11.5307C6.60723 12.2616 7.11992 12.8864 7.77772 13.3259C8.43552 13.7654 9.20888 14 10 14C11.0609 14 12.0783 13.5786 12.8284 12.8284C13.5786 12.0783 14 11.0609 14 10V10ZM8 10C8 9.60444 8.1173 9.21776 8.33706 8.88886C8.55683 8.55996 8.86918 8.30362 9.23464 8.15224C9.60009 8.00087 10.0022 7.96126 10.3902 8.03843C10.7781 8.1156 11.1345 8.30608 11.4142 8.58579C11.6939 8.86549 11.8844 9.22186 11.9616 9.60982C12.0387 9.99778 11.9991 10.3999 11.8478 10.7654C11.6964 11.1308 11.44 11.4432 11.1111 11.6629C10.7822 11.8827 10.3956 12 10 12C9.46957 12 8.96086 11.7893 8.58579 11.4142C8.21072 11.0391 8 10.5304 8 10V10ZM31.42 15.58C30.9408 15.1537 30.3214 14.9187 29.68 14.92C29.0673 14.919 28.4734 15.1311 28 15.52L16.87 24.67C16.7817 24.7399 16.6726 24.7786 16.56 24.78C16.4358 24.7788 16.3172 24.7284 16.23 24.64L15.34 23.79C15.1423 23.603 14.9061 23.4614 14.648 23.3751C14.3899 23.2888 14.1161 23.2599 13.8457 23.2904C13.5752 23.3208 13.3147 23.41 13.0823 23.5515C12.8499 23.6931 12.6512 23.8837 12.5 24.11L7.88 31.33C7.71315 31.5995 7.62264 31.9093 7.61815 32.2263C7.61367 32.5433 7.69536 32.8555 7.85452 33.1297C8.01367 33.4039 8.24431 33.6296 8.5218 33.7829C8.79928 33.9362 9.11319 34.0112 9.43 34H40.17C40.4051 34.0053 40.6389 33.9643 40.8581 33.8792C41.0773 33.7941 41.2776 33.6667 41.4476 33.5041C41.6175 33.3416 41.7538 33.1472 41.8486 32.932C41.9433 32.7168 41.9948 32.4851 42 32.25V25.72C42.0003 25.4752 41.9478 25.2332 41.846 25.0105C41.7441 24.7879 41.5954 24.5899 41.41 24.43L31.42 15.58ZM40 32H9.82L14.08 25.36L14.84 26.1C15.3049 26.5401 15.9198 26.7868 16.56 26.79C17.1374 26.7921 17.697 26.5902 18.14 26.22L26.22 19.58L29.28 17.06C29.3914 16.9654 29.5339 16.9155 29.68 16.92C29.8347 16.9208 29.9839 16.9776 30.1 17.08L40 25.85V32Z" fill="black"/>
</svg>
