<svg width="48" height="41" viewBox="0 0 48 41" fill="none" xmlns="http://www.w3.org/2000/svg">
<path d="M44.65 0H3.35C2.46142 0.0052697 1.61088 0.361277 0.983487 0.990545C0.356092 1.61981 0.00262116 2.47141 0 3.36L0 36.67C0.00263795 37.5577 0.35643 38.4082 0.984106 39.0359C1.61178 39.6636 2.46234 40.0174 3.35 40.02H44.65C45.5377 40.0174 46.3882 39.6636 47.0159 39.0359C47.6436 38.4082 47.9974 37.5577 48 36.67V3.36C47.9974 2.47141 47.6439 1.61981 47.0165 0.990545C46.3891 0.361277 45.5386 0.0052697 44.65 0ZM46 36.67C45.9948 37.0264 45.8509 37.3668 45.5989 37.6189C45.3468 37.8709 45.0064 38.0148 44.65 38.02H3.35C2.99357 38.0148 2.65318 37.8709 2.40112 37.6189C2.14906 37.3668 2.00517 37.0264 2 36.67V3.36C2.00258 3.00183 2.14532 2.65891 2.39766 2.4047C2.65 2.15049 2.99186 2.00522 3.35 2H44.65C45.0081 2.00522 45.35 2.15049 45.6023 2.4047C45.8547 2.65891 45.9974 3.00183 46 3.36V36.67Z" fill="black"/>
<path d="M27.21 26.26H25.6V13.74H27.19C27.3367 13.7409 27.4808 13.701 27.6061 13.6247C27.7314 13.5483 27.8329 13.4386 27.8994 13.3078C27.9658 13.177 27.9945 13.0302 27.9823 12.884C27.97 12.7378 27.9173 12.5979 27.83 12.48L24.64 8.32C24.5643 8.2224 24.4673 8.14341 24.3563 8.08907C24.2454 8.03473 24.1235 8.00648 24 8.00648C23.8765 8.00648 23.7546 8.03473 23.6437 8.08907C23.5327 8.14341 23.4357 8.2224 23.36 8.32L20.17 12.48C20.0827 12.5979 20.03 12.7378 20.0177 12.884C20.0055 13.0302 20.0342 13.177 20.1006 13.3078C20.1671 13.4386 20.2686 13.5483 20.3939 13.6247C20.5192 13.701 20.6633 13.7409 20.81 13.74H22.4V26.26H20.79C20.6444 26.2562 20.5008 26.2937 20.3757 26.3682C20.2506 26.4427 20.1492 26.5511 20.0832 26.681C20.0173 26.8108 19.9895 26.9566 20.0031 27.1016C20.0167 27.2466 20.0711 27.3847 20.16 27.5L23.37 31.67C23.4437 31.7674 23.5389 31.8463 23.6482 31.9007C23.7575 31.955 23.8779 31.9833 24 31.9833C24.1221 31.9833 24.2425 31.955 24.3518 31.9007C24.4611 31.8463 24.5563 31.7674 24.63 31.67L27.84 27.48C27.9231 27.3646 27.9726 27.2285 27.9831 27.0867C27.9936 26.9449 27.9646 26.803 27.8994 26.6767C27.8341 26.5504 27.7352 26.4446 27.6135 26.371C27.4918 26.2975 27.3522 26.259 27.21 26.26V26.26Z" fill="black"/>
</svg>
